<?xml version="1.0" encoding="utf-8"?>
<!-- Generator: Adobe Illustrator 27.5.0, SVG Export Plug-In . SVG Version: 6.00 Build 0)  -->
<svg version="1.1" xmlns="http://www.w3.org/2000/svg" xmlns:xlink="http://www.w3.org/1999/xlink" x="0px" y="0px"
	 viewBox="0 0 3710 3710" style="enable-background:new 0 0 3710 3710;" xml:space="preserve">
<g id="Background">
	<g>
		<g>
			<rect style="fill:#FFFFFF;" width="3710" height="3710"/>
		</g>
	</g>
</g>
<g id="Illustration">
	<g>
		<linearGradient id="SVGID_1_" gradientUnits="userSpaceOnUse" x1="3474.5447" y1="3625.0002" x2="1540.4691" y2="1566.1461">
			<stop  offset="0" style="stop-color:#DAE3FE"/>
			<stop  offset="1" style="stop-color:#E9EFFD"/>
		</linearGradient>
		<path style="fill:url(#SVGID_1_);" d="M2893.84,2798.997c-71.398,73.595-135.282,116.856-184.195,149.516
			c-477.031,318.518-1022.331,226.714-1190.924,195.335c-272.004-50.626-501.613-86.34-698.888-264.57
			c-448.269-404.993-426.466-1249.839-83.934-1773.184c40.614-62.054,382.628-569.024,929.107-640.46
			c13.366-1.747,23.339-2.742,32.074-3.667c84.539-8.951,608.411-56.191,1035.577,301.688
			c61.147,51.229,159.55,143.632,250.801,284.562C3317.114,1563.52,3318.171,2361.613,2893.84,2798.997z"/>
		<g>
			<g>
				<path style="fill:#91B3FA;" d="M1183.26,989.425c-7.582-2.905-11.899-11.131-9.752-19.144
					c4.69-17.529,10.215-35.114,16.414-52.266c3.017-8.345,12.225-12.666,20.568-9.65c0.1,0.038,0.196,0.075,0.293,0.112
					c8.151,3.123,12.335,12.212,9.354,20.457c-5.892,16.296-11.136,33-15.594,49.65c-2.292,8.569-11.1,13.661-19.672,11.365
					C1184.318,989.804,1183.782,989.625,1183.26,989.425z M1234.298,859.119c-0.586-0.225-1.167-0.487-1.738-0.786
					c-7.854-4.125-10.879-13.838-6.754-21.692c8.476-16.132,17.725-32.062,27.491-47.343c4.777-7.477,14.668-9.66,22.188-4.891
					c7.475,4.779,9.659,14.715,4.885,22.185c-9.282,14.527-18.067,29.659-26.12,44.993
					C1250.424,858.868,1241.795,861.992,1234.298,859.119z M1312.758,743.292c-1.67-0.64-3.261-1.572-4.698-2.801
					c-6.735-5.773-7.524-15.913-1.753-22.652c11.825-13.814,24.402-27.286,37.379-40.04c6.333-6.215,16.499-6.117,22.718,0.197
					c6.217,6.327,6.129,16.5-0.198,22.717c-12.324,12.111-24.263,24.9-35.496,38.02
					C1326.171,744.036,1318.922,745.654,1312.758,743.292z M1415.17,647.898c-2.76-1.058-5.26-2.889-7.148-5.441
					c-5.278-7.129-3.774-17.19,3.354-22.468c14.63-10.824,29.901-21.147,45.391-30.681c7.553-4.639,17.443-2.287,22.1,5.263
					c4.649,7.554,2.292,17.449-5.263,22.1c-14.711,9.053-29.218,18.855-43.116,29.146
					C1425.908,649.203,1420.124,649.796,1415.17,647.898z M1536.28,577.737c-3.871-1.483-7.167-4.453-8.962-8.548
					c-3.566-8.126,0.132-17.602,8.256-21.162c16.623-7.291,33.796-13.976,51.034-19.856c8.394-2.872,17.527,1.609,20.392,10.011
					c2.864,8.395-1.618,17.524-10.016,20.394c-16.387,5.588-32.707,11.941-48.506,18.87
					C1544.449,579.214,1540.088,579.196,1536.28,577.737z M1669.885,536.118c-5.013-1.921-8.95-6.306-10.041-11.965
					c-1.677-8.714,4.022-17.133,12.733-18.815c17.852-3.44,36.08-6.16,54.166-8.072c8.827-0.932,16.732,5.463,17.665,14.288
					c0.935,8.818-5.462,16.728-14.284,17.663c-17.188,1.82-34.501,4.399-51.465,7.669
					C1675.603,537.476,1672.589,537.154,1669.885,536.118z M2233.234,711.017c-2.077-0.796-4.017-2.036-5.68-3.722
					c-12.117-12.29-24.935-24.216-38.097-35.442c-6.748-5.757-7.554-15.897-1.797-22.642c5.755-6.752,15.895-7.557,22.646-1.799
					c13.862,11.823,27.364,24.382,40.126,37.322c6.23,6.318,6.157,16.49-0.161,22.718
					C2245.641,712.022,2238.936,713.202,2233.234,711.017z M1809.301,525.149c-6.223-2.384-10.543-8.515-10.305-15.547
					c0.301-8.869,7.732-15.812,16.598-15.513c18.173,0.614,36.541,2.027,54.594,4.2c8.801,1.101,15.093,9.056,14.032,17.868
					c-1.06,8.807-9.061,15.088-17.871,14.031c-17.143-2.066-34.585-3.407-51.842-3.992
					C1812.674,526.132,1810.921,525.77,1809.301,525.149z M2124.375,623.088c-0.99-0.379-1.959-0.858-2.889-1.45
					c-14.57-9.271-29.736-18.032-45.068-26.051c-7.861-4.115-10.902-13.82-6.792-21.68c4.114-7.858,13.829-10.942,21.68-6.792
					c16.132,8.439,32.091,17.658,47.424,27.41c7.486,4.763,9.694,14.694,4.932,22.177
					C2139.493,623.257,2131.359,625.764,2124.375,623.088z M1947.672,545.598c-7.57-2.901-11.888-11.107-9.76-19.115
					c2.278-8.576,11.074-13.678,19.651-11.407c17.555,4.664,35.147,10.148,52.28,16.309c0.107,0.034,0.216,0.076,0.322,0.116
					c8.138,3.118,12.324,12.188,9.365,20.428c-3.002,8.352-12.2,12.689-20.55,9.685c-16.276-5.847-32.985-11.053-49.666-15.483
					C1948.752,545.978,1948.202,545.801,1947.672,545.598z"/>
				<path style="fill:#91B3FA;" d="M2304.841,798.172c-2.953-1.132-5.607-3.143-7.521-5.959c-4.656-6.85-9.536-13.713-14.495-20.411
					c-5.283-7.124-3.789-17.189,3.338-22.469c7.125-5.286,17.197-3.799,22.47,3.342c5.221,7.04,10.35,14.26,15.253,21.468
					c4.988,7.334,3.087,17.33-4.246,22.315C2315.117,799.536,2309.587,799.991,2304.841,798.172z"/>
			</g>
			<g>
				<path style="fill:#91B3FA;" d="M2400.247,1278.536c-7.24-2.774-11.6-10.466-9.957-18.296c1.704-8.103,3.266-16.381,4.64-24.597
					c1.465-8.752,9.746-14.658,18.495-13.194c8.787,1.472,14.657,9.749,13.194,18.495c-1.45,8.65-3.093,17.367-4.885,25.901
					c-1.825,8.682-10.342,14.241-19.024,12.419C2401.857,1279.086,2401.035,1278.838,2400.247,1278.536z"/>
				<path style="fill:#91B3FA;" d="M1564.607,1734.839c-6.902-2.645-13.786-5.417-20.648-8.315c-8.172-3.454-12-12.876-8.549-21.049
					s12.926-12.015,21.048-8.553c15.839,6.688,31.913,12.719,47.962,17.981c8.433,2.781,13.023,11.837,10.26,20.267
					c-2.766,8.435-11.843,13.028-20.272,10.262C1584.481,1742.178,1574.454,1738.612,1564.607,1734.839z M1468.267,1688.269
					c-0.838-0.321-1.663-0.719-2.463-1.193c-15.417-9.139-30.619-19.036-45.178-29.413c-7.224-5.147-8.907-15.179-3.761-22.4
					c5.151-7.226,15.205-8.923,22.406-3.759c13.83,9.855,28.271,19.252,42.92,27.943c7.63,4.523,10.148,14.378,5.625,22.005
					C1483.763,1688.286,1475.442,1691.018,1468.267,1688.269z M1676.368,1766.138c-7.072-2.71-11.444-10.144-10.041-17.865
					c1.589-8.732,9.951-14.519,18.681-12.935c16.697,3.038,33.75,5.4,50.697,7.014c8.831,0.857,15.308,8.688,14.465,17.518
					c-0.845,8.835-8.689,15.31-17.521,14.467c-17.843-1.703-35.806-4.192-53.39-7.388
					C1678.254,1766.766,1677.287,1766.49,1676.368,1766.138z M1358.24,1605.396c-1.904-0.73-3.696-1.84-5.271-3.324
					c-13.02-12.293-25.672-25.292-37.601-38.632c-5.913-6.613-5.346-16.765,1.267-22.677c6.616-5.918,16.765-5.356,22.681,1.266
					c11.328,12.666,23.34,25.01,35.707,36.683c6.453,6.087,6.743,16.258,0.653,22.707
					C1371.073,1606.295,1364.137,1607.656,1358.24,1605.396z M1813.671,1775.607c-5.801-2.223-10.029-7.726-10.307-14.331
					c-0.374-8.865,6.511-16.354,15.376-16.727c16.947-0.71,34.103-2.16,50.994-4.302c8.801-1.117,16.844,5.11,17.958,13.917
					c1.114,8.8-5.113,16.836-13.914,17.952c-17.782,2.258-35.845,3.784-53.69,4.533
					C1817.831,1776.745,1815.657,1776.368,1813.671,1775.607z M1949.732,1754.718c-4.637-1.777-8.389-5.674-9.778-10.835
					c-2.301-8.569,2.779-17.381,11.348-19.681c16.432-4.416,32.869-9.574,48.853-15.33c8.343-3.019,17.545,1.307,20.558,9.665
					c3.006,8.349-1.322,17.549-9.669,20.56c-16.823,6.059-34.119,11.487-51.41,16.13
					C1956.232,1756.141,1952.791,1755.891,1949.732,1754.718z M2078.001,1704.664c-3.528-1.352-6.593-3.943-8.481-7.556
					c-4.112-7.859-1.071-17.566,6.791-21.677c15.093-7.892,30.012-16.501,44.352-25.602c7.488-4.751,17.41-2.542,22.169,4.96
					c4.75,7.492,2.533,17.414-4.96,22.17c-15.091,9.572-30.795,18.64-46.674,26.943
					C2086.948,1706.124,2082.156,1706.256,2078.001,1704.664z M2192.293,1627.833c-2.444-0.936-4.69-2.483-6.501-4.621
					c-5.731-6.772-4.886-16.904,1.886-22.635c12.995-10.994,25.662-22.664,37.655-34.693c6.264-6.281,16.445-6.292,22.717-0.038
					c6.285,6.265,6.298,16.437,0.034,22.719c-12.633,12.671-25.974,24.963-39.651,36.535
					C2203.795,1629.021,2197.587,1629.861,2192.293,1627.833z M2286.967,1527.746c-1.374-0.527-2.698-1.255-3.931-2.185
					c-7.082-5.341-8.493-15.416-3.15-22.495c10.223-13.554,20.003-27.722,29.068-42.122c4.728-7.509,14.666-9.742,22.151-5.033
					c7.509,4.725,9.762,14.647,5.034,22.155c-9.544,15.157-19.84,30.075-30.604,44.342
					C2301.124,1528.259,2293.483,1530.243,2286.967,1527.746z M2357.292,1409.386c-0.308-0.118-0.613-0.249-0.917-0.385
					c-8.074-3.672-11.645-13.197-7.971-21.271c5.185-11.4,10.078-23.091,14.55-34.764c1.619-4.225,3.186-8.462,4.705-12.698
					c2.996-8.353,12.194-12.698,20.543-9.701c8.514,2.866,12.694,12.189,9.703,20.537c-1.599,4.461-3.246,8.91-4.95,13.357
					c-4.704,12.275-9.855,24.581-15.308,36.569C2374.114,1408.803,2365.158,1412.4,2357.292,1409.386z"/>
				<path style="fill:#91B3FA;" d="M1268.957,1500.004c-2.983-1.143-5.652-3.18-7.57-6.025c-4.855-7.216-9.649-14.67-14.249-22.158
					c-4.646-7.56-2.284-17.453,5.274-22.096c7.561-4.642,17.449-2.292,22.096,5.274c4.371,7.111,8.925,14.192,13.533,21.044
					c4.953,7.355,3.003,17.338-4.358,22.292C1279.171,1501.37,1273.673,1501.811,1268.957,1500.004z"/>
			</g>
			<g>
				<g>
					
						<linearGradient id="SVGID_00000116935304081894713030000012101290861196940429_" gradientUnits="userSpaceOnUse" x1="890.3759" y1="401.9571" x2="2364.2405" y2="3002.1943" gradientTransform="matrix(0.9338 0.3578 -0.3578 0.9338 1026.6658 -102.8253)">
						<stop  offset="0" style="stop-color:#4F52FF"/>
						<stop  offset="1" style="stop-color:#4042E2"/>
					</linearGradient>
					<path style="fill:url(#SVGID_00000116935304081894713030000012101290861196940429_);" d="M1355.864,1333.773
						c1.003,3.041,3.826,5.113,7.028,5.156l91.369,1.235c22.255,36.411,50.475,69.537,84.149,97.726l-12.273,90.49
						c-0.431,3.175,1.201,6.272,4.06,7.714l97.877,49.334c2.861,1.441,6.321,0.908,8.616-1.324l65.44-63.693
						c42.692,10.3,86.105,13.282,128.612,9.511l55.344,72.713c1.94,2.548,5.283,3.585,8.324,2.583l104.093-34.326
						c3.044-1.004,5.114-3.827,5.156-7.029l1.236-91.369c36.411-22.254,69.536-50.476,97.725-84.15l90.492,12.273
						c3.174,0.431,6.271-1.199,7.713-4.06l49.333-97.878c1.442-2.86,0.91-6.32-1.325-8.615l-63.693-65.44
						c10.301-42.691,13.284-86.104,9.511-128.611l72.714-55.345c2.546-1.939,3.585-5.283,2.582-8.324l-34.327-104.093
						c-1.002-3.043-3.826-5.113-7.028-5.156l-91.37-1.235c-22.253-36.412-50.475-69.537-84.149-97.726l12.273-90.492
						c0.43-3.173-1.199-6.27-4.06-7.713l-97.879-49.332c-2.86-1.443-6.319-0.91-8.615,1.324l-65.44,63.693
						c-42.691-10.302-86.105-13.283-128.612-9.511l-55.343-72.712c-1.939-2.55-5.284-3.587-8.325-2.584l-104.093,34.327
						c-3.042,1.003-5.112,3.825-5.156,7.028l-1.236,91.369c-36.412,22.254-69.536,50.476-97.725,84.15l-90.492-12.273
						c-3.172-0.431-6.271,1.2-7.712,4.062l-49.332,97.876c-1.442,2.861-0.911,6.32,1.323,8.616l63.693,65.44
						c-10.3,42.69-13.281,86.103-9.512,128.611l-72.711,55.345c-2.55,1.94-3.586,5.282-2.584,8.325L1355.864,1333.773z"/>
				</g>
				<path style="fill:#91B3FA;" d="M1756.251,1233.873c-50.151-19.216-80.076-72.916-68.038-126.859
					c13.235-59.296,72.236-96.763,131.529-83.532c28.728,6.404,53.233,23.622,69.005,48.461
					c15.778,24.84,20.938,54.341,14.525,83.063c-13.235,59.297-72.236,96.763-131.528,83.532
					C1766.399,1237.345,1761.223,1235.778,1756.251,1233.873z M1826.139,1052.18c-3.873-1.484-7.874-2.694-11.997-3.615
					c-45.458-10.147-90.698,18.589-100.845,64.043c-10.146,45.461,18.569,90.714,64.045,100.848
					c45.458,10.147,90.698-18.588,100.844-64.043c4.915-22.026,0.961-44.641-11.136-63.689
					C1857.218,1070.244,1842.958,1058.625,1826.139,1052.18z"/>
				<path style="fill:#91B3FA;" d="M1701.419,1383.274c-8.613-3.3-17.111-7.053-25.46-11.26l0,0
					c-2.628-1.323-5.235-2.691-7.821-4.099c-12.744-6.946-24.914-14.895-36.325-23.723c-0.156-0.12-0.311-0.24-0.467-0.36
					c-0.44-0.343-0.879-0.686-1.317-1.036c-0.855-0.67-1.703-1.352-2.548-2.031c-2.223-1.792-2.937-4.761-1.97-7.293
					c0.236-0.615,0.572-1.205,1.007-1.744c2.228-2.762,6.272-3.181,9.033-0.961c14.208,11.472,29.748,21.485,46.189,29.767
					c81.65,41.171,175.031,34.697,248.344-8.897c40.781-24.242,75.351-59.976,98.239-105.393
					c4.016-7.963,7.599-16.071,10.744-24.288c21.179-55.291,22.685-115.682,3.89-172.67
					c-21.585-65.462-67.373-118.6-128.922-149.622c-127.125-64.058-282.545-12.768-346.584,114.289
					c-3.949,7.834-7.486,15.839-10.602,23.979c-13.508,35.271-19.148,73.105-16.382,110.807c0.071,0.974-0.078,1.912-0.408,2.767
					c-0.862,2.25-2.965,3.923-5.53,4.11c-3.542,0.249-6.624-2.39-6.879-5.941c-2.903-39.582,3.015-79.306,17.196-116.334
					c3.27-8.544,6.984-16.945,11.125-25.169c67.235-133.4,230.493-187.196,363.845-119.987
					c64.619,32.568,112.682,88.353,135.343,157.075c19.733,59.827,18.15,123.225-4.081,181.272
					c-3.305,8.625-7.067,17.136-11.277,25.494c-32.573,64.621-88.355,112.688-157.075,135.35
					C1822.889,1407.111,1759.474,1405.519,1701.419,1383.274z"/>
			</g>
		</g>
		<g>
			<g>
				<path style="fill:#91B3FA;" d="M3188.356,1373.63c2.921,2.91,3.713,7.496,1.64,11.303c-3.864,7.108-7.996,14.197-12.284,21.066
					c-2.786,4.464-8.659,5.824-13.131,3.039c-4.483-2.773-5.823-8.666-3.039-13.131c4.085-6.546,8.024-13.301,11.714-20.084
					c2.509-4.621,8.297-6.329,12.925-3.821C3187.001,1372.451,3187.726,1373.002,3188.356,1373.63z"/>
				<path style="fill:#91B3FA;" d="M3147.571,1434.55c3.422,3.409,3.774,8.923,0.665,12.749
					c-8.779,10.817-18.217,21.305-28.043,31.168c-2.069,2.077-4.168,4.137-6.293,6.184c-3.8,3.65-9.888,3.194-13.482-0.255
					c-3.649-3.793-3.532-9.826,0.255-13.475c2.033-1.955,4.041-3.923,6.018-5.908c9.374-9.409,18.374-19.412,26.749-29.723
					c3.319-4.09,9.317-4.71,13.406-1.397C3147.1,1434.107,3147.344,1434.323,3147.571,1434.55z M3076.261,1503.158
					c0.319,0.318,0.627,0.663,0.904,1.031c3.16,4.213,2.312,10.187-1.896,13.35c-13.5,10.147-27.75,19.544-42.347,27.926
					c-4.566,2.625-10.396,1.019-13.011-3.517c-2.621-4.569-1.049-10.385,3.517-13.01c13.927-7.999,27.517-16.964,40.395-26.639
					C3067.656,1499.419,3072.958,1499.866,3076.261,1503.158z M2990.444,1552.423c0.857,0.854,1.562,1.886,2.062,3.066
					c2.035,4.853-0.258,10.438-5.111,12.474c-15.552,6.512-31.685,12.129-47.945,16.672c-5.075,1.421-10.319-1.531-11.743-6.615
					c-1.418-5.065,1.544-10.326,6.609-11.743c15.506-4.336,30.884-9.682,45.715-15.899
					C2983.702,1548.846,2987.79,1549.779,2990.444,1552.423z M2895.137,1579.085c1.398,1.393,2.372,3.23,2.695,5.326
					c0.78,5.204-2.807,10.064-8.011,10.844c-16.708,2.508-33.71,4.001-50.55,4.433c-5.261,0.131-9.629-4.036-9.767-9.285
					c-0.138-5.261,4.016-9.635,9.284-9.773c16.048-0.408,32.274-1.833,48.202-4.225
					C2890.094,1575.938,2893.07,1577.026,2895.137,1579.085z M2796.212,1581.66c1.952,1.945,3.05,4.72,2.762,7.679
					c-0.507,5.235-5.166,9.068-10.405,8.564c-16.792-1.634-33.644-4.314-50.083-7.976c-5.149-1.135-8.379-6.234-7.234-11.372
					c1.146-5.139,6.24-8.379,11.371-7.233c15.689,3.491,31.762,6.052,47.786,7.604
					C2792.69,1579.15,2794.706,1580.159,2796.212,1581.66z M2699.672,1560.151c2.528,2.519,3.529,6.368,2.252,9.957
					c-1.764,4.955-7.216,7.538-12.174,5.777c-15.891-5.663-31.579-12.373-46.618-19.946c-4.706-2.39-6.589-8.102-4.225-12.802
					c2.364-4.699,8.099-6.592,12.796-4.225c14.344,7.223,29.294,13.618,44.444,19.016
					C2697.52,1558.414,2698.706,1559.188,2699.672,1560.151z M2611.345,1515.702c3.164,3.153,3.763,8.203,1.187,12.047
					c-2.93,4.372-8.851,5.542-13.226,2.614c-13.97-9.359-27.532-19.719-40.32-30.791c-3.928-3.52-4.406-9.476-0.959-13.449
					c3.444-3.978,9.462-4.408,13.443-0.966c12.191,10.57,25.128,20.449,38.448,29.372
					C2610.441,1514.88,2610.916,1515.275,2611.345,1515.702z M2505.669,1412.124c0.389,0.387,0.755,0.818,1.082,1.288
					c7.977,11.377,16.717,22.516,25.981,33.11c1.395,1.613,2.782,3.18,4.187,4.724c3.528,3.91,3.23,9.931-0.675,13.462
					c-3.907,3.545-10.067,3.319-13.463-0.669c-1.49-1.656-2.971-3.315-4.432-5.006c-9.675-11.072-18.838-22.749-27.201-34.681
					c-3.022-4.312-1.98-10.25,2.332-13.272C2497.318,1408.388,2502.455,1408.921,2505.669,1412.124z"/>
			</g>
			<g>
				<path style="fill:#91B3FA;" d="M3114.846,892.686c3.686,3.672,3.742,9.641,0.107,13.389c-3.662,3.774-9.7,3.868-13.474,0.199
					c-11.37-11.038-23.508-21.476-36.082-31.022c-4.136-3.201-5.016-9.161-1.828-13.356c3.187-4.195,9.165-5.006,13.356-1.828
					c13.18,10.019,25.912,20.955,37.829,32.526C3114.783,892.624,3114.816,892.657,3114.846,892.686z M3147.725,928.689
					c0.244,0.243,0.471,0.496,0.692,0.769c10.439,12.896,20.197,26.56,29.009,40.607c2.792,4.463,1.45,10.339-3.01,13.134
					c-4.463,2.806-10.349,1.422-13.141-3.003c-8.406-13.406-17.719-26.443-27.676-38.753c-3.312-4.088-2.677-10.091,1.413-13.399
					C3138.84,924.948,3144.323,925.299,3147.725,928.689z M3037.334,833.853c2.994,2.982,3.732,7.713,1.509,11.54
					c-2.64,4.543-8.472,6.09-13.024,3.446c-13.713-7.961-28.017-15.157-42.533-21.382c-4.837-2.1-7.075-7.68-4.994-12.518
					c2.071-4.834,7.679-7.076,12.517-5.002c15.215,6.527,30.213,14.074,44.582,22.424
					C3036.118,832.786,3036.767,833.288,3037.334,833.853z M3199.404,1011.209c0.768,0.765,1.418,1.675,1.907,2.714
					c7.036,15.038,13.212,30.664,18.352,46.439c1.634,5.005-1.103,10.383-6.108,12.018c-4.992,1.621-10.373-1.113-12.011-6.108
					c-4.905-15.041-10.793-29.933-17.499-44.274c-2.227-4.767-0.171-10.443,4.596-12.67
					C3192.366,1007.586,3196.648,1008.463,3199.404,1011.209z M2947.906,795.507c2.39,2.381,3.44,5.962,2.429,9.423
					c-1.474,5.06-6.766,7.959-11.817,6.488c-15.181-4.431-30.791-7.975-46.409-10.529c-5.204-0.849-8.717-5.755-7.864-10.95
					c0.852-5.194,5.755-8.717,10.949-7.865c16.372,2.688,32.742,6.399,48.661,11.039
					C2945.441,793.576,2946.815,794.42,2947.906,795.507z M2851.886,779.731c1.83,1.823,2.914,4.375,2.8,7.152
					c-0.22,5.259-4.661,9.347-9.92,9.126c-15.842-0.661-31.86-0.368-47.602,0.868c-5.254,0.414-9.842-3.512-10.25-8.754
					c-0.414-5.247,3.503-9.831,8.747-10.243c16.51-1.3,33.3-1.611,49.9-0.918C2848.037,777.067,2850.258,778.109,2851.886,779.731z
					 M2754.843,787.414c1.285,1.281,2.223,2.937,2.605,4.855c1.049,5.158-2.288,10.189-7.448,11.235
					c-15.536,3.138-31.013,7.267-45.999,12.266c-4.985,1.655-10.39-1.037-12.051-6.029c-1.664-4.995,1.031-10.389,6.029-12.057
					c15.713-5.235,31.947-9.569,48.241-12.87C2749.467,784.159,2752.661,785.24,2754.843,787.414z"/>
				<path style="fill:#91B3FA;" d="M3229.697,1104.202c1.302,1.297,2.243,2.984,2.622,4.925c1.561,8.006,2.889,16.095,3.957,24.043
					c0.697,5.215-2.963,10.016-8.18,10.717c-5.208,0.683-10.005-2.966-10.716-8.181c-1.014-7.579-2.285-15.297-3.771-22.938
					c-1.007-5.167,2.37-10.172,7.534-11.175C3224.367,1100.967,3227.531,1102.044,3229.697,1104.202z"/>
			</g>
			<g>
				
					<linearGradient id="SVGID_00000088120256534499301970000006501645326085055116_" gradientUnits="userSpaceOnUse" x1="465.1327" y1="5607.6665" x2="1335.9912" y2="4272.3481" gradientTransform="matrix(-0.7084 -0.7058 0.7058 -0.7084 -30.5858 5327.0444)">
					<stop  offset="0" style="stop-color:#4F52FF"/>
					<stop  offset="1" style="stop-color:#4042E2"/>
				</linearGradient>
				<path style="fill:url(#SVGID_00000088120256534499301970000006501645326085055116_);" d="M3137.188,1185.828
					c0.204-2.048-0.915-4.001-2.785-4.861l-53.36-24.547c-3.582-27.194-11.526-54.014-23.962-79.355l30.802-49.966
					c1.081-1.752,0.93-3.997-0.374-5.59l-44.643-54.502c-1.305-1.593-3.477-2.182-5.407-1.469l-55.053,20.361
					c-22.397-17.182-47.126-30.252-73.083-39.119l-13.559-57.149c-0.476-2.003-2.17-3.484-4.219-3.688l-70.106-6.97
					c-2.05-0.203-4.002,0.915-4.862,2.785l-24.546,53.359c-27.195,3.581-54.014,11.526-79.356,23.962l-49.966-30.803
					c-1.753-1.08-3.997-0.93-5.59,0.374l-54.502,44.645c-1.594,1.305-2.183,3.477-1.468,5.407l20.361,55.053
					c-17.183,22.396-30.252,47.126-39.118,73.082l-57.15,13.56c-2.002,0.475-3.483,2.169-3.687,4.217l-6.97,70.108
					c-0.204,2.048,0.915,4,2.785,4.861l53.361,24.547c3.58,27.194,11.526,54.014,23.961,79.355l-30.803,49.967
					c-1.08,1.752-0.931,3.997,0.374,5.59l44.645,54.502c1.304,1.593,3.475,2.182,5.407,1.468l55.053-20.361
					c22.396,17.183,47.126,30.253,73.084,39.119l13.559,57.148c0.475,2.004,2.17,3.485,4.218,3.688l70.106,6.971
					c2.048,0.203,4.001-0.914,4.862-2.785l24.547-53.359c27.195-3.582,54.014-11.527,79.355-23.963l49.966,30.804
					c1.751,1.08,3.997,0.93,5.589-0.376l54.502-44.643c1.593-1.306,2.182-3.476,1.469-5.407l-20.361-55.053
					c17.181-22.396,30.252-47.125,39.119-73.082l57.149-13.56c2.003-0.475,3.483-2.169,3.688-4.218L3137.188,1185.828z"/>
				<path style="fill:#91B3FA;" d="M2876.881,1139.306c10.892,10.851,17.993,24.849,20.304,40.33
					c2.842,19.044-1.904,38.056-13.363,53.532c-23.639,31.942-68.868,38.696-100.826,15.053
					c-31.949-23.738-38.699-68.892-15.051-100.836c11.456-15.48,28.255-25.57,47.296-28.409
					c19.046-2.846,38.061,1.897,53.538,13.362C2871.67,1134.481,2874.378,1136.813,2876.881,1139.306z M2788.434,1227.823
					c1.817,1.81,3.784,3.507,5.903,5.08c23.506,17.39,56.774,12.422,74.17-11.078c8.422-11.381,11.921-25.369,9.825-39.372
					c-2.093-14.014-9.522-26.356-20.896-34.799l0,0c-11.384-8.426-25.373-11.917-39.376-9.828
					c-14.014,2.093-26.369,9.515-34.798,20.903C2767.438,1180.103,2770.122,1209.578,2788.434,1227.823z"/>
				<path style="fill:#91B3FA;" d="M2951.007,1062.967c4.272,4.257,8.36,8.764,12.266,13.521
					c7.747,9.453,14.541,19.703,20.204,30.495c0.251,0.487,0.502,0.974,0.753,1.46c1.936,3.768,1.118,8.221-1.717,11.073
					c-0.689,0.692-1.501,1.289-2.415,1.758c-4.682,2.404-10.411,0.533-12.824-4.132c-5.192-10.126-11.501-19.735-18.743-28.567
					l-0.003-0.003c-0.396-0.486-0.802-0.968-1.201-1.445c-17.33-20.748-39.175-36.389-63.664-46.075
					c-13.294-5.256-27.377-8.751-41.954-10.333c-0.118-0.013-0.237-0.026-0.355-0.039c-0.366-0.035-0.725-0.078-1.087-0.11
					c-42.653-4.237-84.406,8.382-117.563,35.544c-4.294,3.512-8.371,7.215-12.234,11.092c-25.983,26.086-42.07,60.034-45.766,97.171
					c-4.238,42.653,8.389,84.4,35.548,117.554c27.155,33.125,65.61,53.754,108.26,58.002c42.652,4.238,84.406-8.382,117.563-35.544
					c4.222-3.453,8.25-7.113,12.072-10.95c16.577-16.645,29.323-36.724,37.259-58.85c0.491-1.364,1.255-2.546,2.218-3.506
					c2.522-2.532,6.381-3.536,9.969-2.246c4.949,1.791,7.533,7.229,5.751,12.194c-8.882,24.757-23.144,47.228-41.681,65.847
					c-4.283,4.299-8.786,8.391-13.505,12.256c-37.103,30.391-83.813,44.511-131.536,39.765
					c-47.715-4.748-90.738-27.748-121.115-64.885c-30.391-37.096-44.514-83.802-39.762-131.527
					c4.125-41.544,22.126-79.523,51.197-108.708c4.316-4.332,8.882-8.48,13.679-12.41
					C2782.448,992.539,2886.598,998.796,2951.007,1062.967z"/>
			</g>
		</g>
		<g>
			<g>
				<path style="fill:#91B3FA;" d="M605.739,1931.615c-4.346-1.299-7.503-5.33-7.477-10.099c0.042-8.901,0.355-17.924,0.932-26.814
					c0.375-5.777,5.359-10.155,11.143-9.784c5.789,0.352,10.158,5.365,9.784,11.143c-0.549,8.471-0.848,17.07-0.89,25.566
					c-0.025,5.785-4.744,10.455-10.536,10.435C607.666,1932.052,606.677,1931.895,605.739,1931.615z"/>
				<path style="fill:#91B3FA;" d="M613.532,1851.331c-5.092-1.521-8.306-6.682-7.285-12.009
					c2.874-15.056,6.557-30.135,10.943-44.813c0.923-3.09,1.885-6.18,2.878-9.272c1.782-5.516,7.919-8.246,13.198-6.776
					c5.513,1.775,8.541,7.682,6.772,13.192c-0.952,2.954-1.872,5.907-2.755,8.86c-4.184,14.001-7.696,28.383-10.441,42.739
					c-1.086,5.692-6.576,9.418-12.264,8.337C614.221,1851.515,613.871,1851.432,613.532,1851.331z M646.904,1747.697
					c-0.475-0.142-0.953-0.316-1.413-0.528c-5.257-2.437-7.547-8.668-5.116-13.926c7.797-16.865,16.713-33.396,26.493-49.122
					c3.057-4.922,9.544-6.403,14.441-3.368c4.92,3.063,6.426,9.519,3.369,14.44c-9.331,15.006-17.832,30.774-25.272,46.858
					C657.191,1746.839,651.82,1749.166,646.904,1747.697z M704.41,1655.252c-1.275-0.381-2.496-1.014-3.596-1.897
					c-4.5-3.643-5.188-10.25-1.545-14.751c11.68-14.411,24.389-28.259,37.78-41.131c4.178-4.021,10.798-3.891,14.826,0.294
					c4.012,4.17,3.882,10.811-0.288,14.823c-12.769,12.279-24.887,25.47-36.023,39.22
					C712.808,1655.207,708.36,1656.432,704.41,1655.252z M782.887,1579.77c-2.081-0.622-3.981-1.894-5.385-3.758
					c-3.467-4.637-2.522-11.216,2.116-14.682c14.886-11.134,30.586-21.436,46.68-30.627c5.031-2.868,11.435-1.104,14.302,3.91
					c2.875,5.026,1.127,11.429-3.906,14.307c-15.339,8.755-30.322,18.588-44.512,29.202
					C789.414,1580.192,785.962,1580.688,782.887,1579.77z M877.416,1525.745c-2.905-0.868-5.414-2.986-6.677-6.003
					c-2.235-5.338,0.284-11.479,5.623-13.72c17.125-7.163,34.852-13.344,52.691-18.358c5.581-1.581,11.368,1.677,12.934,7.253
					c1.566,5.577-1.683,11.37-7.253,12.933c-17.024,4.789-33.933,10.68-50.271,17.522
					C882.137,1526.344,879.657,1526.415,877.416,1525.745z M982.179,1496.305c-3.763-1.124-6.737-4.333-7.369-8.476
					c-0.871-5.721,3.066-11.064,8.789-11.94c18.35-2.789,37.049-4.458,55.568-4.952c5.806-0.135,10.606,4.42,10.763,10.206
					c0.157,5.786-4.415,10.607-10.2,10.76c-17.663,0.472-35.483,2.061-52.977,4.721
					C985.169,1496.867,983.617,1496.734,982.179,1496.305z M1090.932,1493.373c-4.709-1.407-7.92-5.989-7.425-11.057
					c0.562-5.763,5.691-9.981,11.456-9.423c18.413,1.793,36.953,4.769,55.114,8.838c5.641,1.365,9.206,6.888,7.935,12.534
					c-1.266,5.65-6.874,9.201-12.525,7.939c-17.321-3.893-35.004-6.729-52.561-8.438
					C1092.235,1493.699,1091.57,1493.563,1090.932,1493.373z M1247.297,1538.708c-0.579-0.173-1.158-0.4-1.719-0.685
					c-13.657-6.87-27.929-13.113-42.425-18.555c-2.192-0.836-4.353-1.632-6.518-2.398c-5.456-1.951-8.303-7.942-6.358-13.398
					c1.94-5.47,8.027-8.46,13.396-6.364c2.307,0.828,4.606,1.665,6.903,2.543c15.143,5.69,30.106,12.234,44.426,19.442
					c5.175,2.605,7.258,8.902,4.654,14.077C1257.337,1537.979,1252.08,1540.137,1247.297,1538.708z"/>
			</g>
			<g>
				<path style="fill:#91B3FA;" d="M927.496,2359.419c-5.484-1.639-8.649-7.394-7.078-12.92c1.583-5.566,7.386-8.801,12.954-7.212
					c16.768,4.775,33.969,8.568,51.127,11.27c5.676,0.947,9.633,6.265,8.728,11.991c-0.903,5.725-6.274,9.625-11.991,8.729
					c-17.992-2.844-36.027-6.811-53.603-11.817C927.589,2359.447,927.54,2359.432,927.496,2359.419z M876.878,2341.654
					c-0.364-0.109-0.715-0.236-1.071-0.385c-16.834-7.06-33.408-15.219-49.265-24.243c-5.031-2.871-6.791-9.264-3.925-14.297
					c2.864-5.044,9.289-6.768,14.3-3.935c15.13,8.614,30.946,16.397,47.007,23.141c5.339,2.237,7.851,8.385,5.61,13.721
					C887.438,2340.652,881.941,2343.167,876.878,2341.654z M1033.26,2376.06c-4.455-1.331-7.634-5.531-7.473-10.398
					c0.192-5.778,5.038-10.315,10.827-10.124c17.436,0.573,35.047,0.096,52.358-1.434c5.782-0.484,10.857,3.758,11.361,9.53
					c0.511,5.764-3.757,10.857-9.525,11.367c-18.144,1.6-36.611,2.098-54.886,1.49
					C1034.994,2376.461,1034.104,2376.313,1033.26,2376.06z M783.812,2288.6c-1.142-0.341-2.246-0.885-3.261-1.637
					c-14.652-10.908-28.777-22.834-41.974-35.446c-4.19-3.999-4.34-10.637-0.34-14.829c3.993-4.171,10.633-4.325,14.822-0.337
					c12.588,12.022,26.052,23.387,40.02,33.793c4.642,3.46,5.605,10.031,2.146,14.673
					C792.52,2288.446,787.913,2289.825,783.812,2288.6z M1139.901,2366.641c-3.557-1.063-6.44-3.986-7.262-7.866
					c-1.208-5.672,2.411-11.238,8.073-12.443c17.02-3.613,33.995-8.31,50.461-13.969c5.486-1.888,11.446,1.037,13.325,6.515
					c1.88,5.477-1.037,11.446-6.514,13.325c-17.266,5.923-35.064,10.854-52.908,14.649
					C1143.295,2367.229,1141.524,2367.126,1139.901,2366.641z M1241.173,2331.914c-2.723-0.813-5.103-2.722-6.439-5.473
					c-2.526-5.211-0.351-11.487,4.86-14.011c15.697-7.611,31.068-16.238,45.68-25.637c4.876-3.138,11.368-1.723,14.493,3.145
					c3.135,4.87,1.726,11.352-3.142,14.483c-15.322,9.86-31.433,18.907-47.881,26.881
					C1246.291,2332.491,1243.597,2332.638,1241.173,2331.914z M1331.218,2273.921c-1.913-0.572-3.685-1.689-5.054-3.348
					c-3.704-4.452-3.09-11.066,1.366-14.767c13.421-11.134,26.271-23.198,38.189-35.848c3.969-4.2,10.609-4.407,14.819-0.434
					c4.215,3.974,4.413,10.605,0.438,14.825c-12.501,13.258-25.976,25.914-40.048,37.601
					C1338.123,2274.275,1334.465,2274.891,1331.218,2273.921z"/>
				<path style="fill:#91B3FA;" d="M706.016,2214.258c-1.938-0.579-3.728-1.723-5.106-3.407
					c-5.684-6.946-11.184-14.093-16.359-21.239c-3.392-4.69-2.346-11.25,2.346-14.646c4.691-3.375,11.242-2.337,14.646,2.346
					c4.931,6.817,10.182,13.634,15.602,20.266c3.667,4.483,3.001,11.092-1.48,14.754
					C712.866,2214.616,709.239,2215.221,706.016,2214.258z"/>
			</g>
			<g>
				
					<linearGradient id="SVGID_00000090994588123318484520000007097227196498076546_" gradientUnits="userSpaceOnUse" x1="1159.1466" y1="1164.3132" x2="582.1671" y2="2127.5742" gradientTransform="matrix(0.9581 0.2863 -0.2863 0.9581 829.0623 -33.2943)">
					<stop  offset="0" style="stop-color:#4F52FF"/>
					<stop  offset="1" style="stop-color:#4042E2"/>
				</linearGradient>
				<path style="fill:url(#SVGID_00000090994588123318484520000007097227196498076546_);" d="M753.15,2086.966
					c0.869,2.091,2.97,3.401,5.231,3.26l64.499-4.005c17.637,24.489,39.305,46.343,64.557,64.424l-3.824,64.467
					c-0.135,2.261,1.181,4.358,3.274,5.222l71.654,29.566c2.095,0.863,4.506,0.303,6.005-1.394l42.747-48.408
					c30.655,4.985,61.429,4.771,91.203-0.157l42.908,48.322c1.505,1.693,3.917,2.246,6.009,1.376l71.573-29.762
					c2.092-0.871,3.402-2.971,3.261-5.232l-4.005-64.498c24.489-17.636,46.343-39.306,64.424-64.557l64.468,3.826
					c2.261,0.134,4.358-1.181,5.222-3.274l29.565-71.656c0.864-2.095,0.305-4.506-1.394-6.004l-48.408-42.748
					c4.986-30.655,4.771-61.429-0.157-91.202l48.323-42.91c1.692-1.504,2.246-3.917,1.377-6.007l-29.763-71.574
					c-0.869-2.092-2.971-3.4-5.231-3.26l-64.499,4.006c-17.635-24.49-39.305-46.342-64.556-64.424l3.825-64.469
					c0.134-2.26-1.18-4.358-3.274-5.222l-71.656-29.565c-2.094-0.864-4.504-0.304-6.004,1.394l-42.747,48.409
					c-30.655-4.986-61.43-4.772-91.204,0.157l-42.907-48.321c-1.504-1.695-3.918-2.248-6.009-1.378l-71.573,29.762
					c-2.091,0.87-3.401,2.97-3.261,5.232l4.005,64.497c-24.489,17.636-46.342,39.306-64.423,64.558l-64.469-3.826
					c-2.259-0.134-4.358,1.181-5.221,3.276l-29.565,71.653c-0.864,2.095-0.304,4.505,1.393,6.005l48.408,42.748
					c-4.985,30.654-4.771,61.427,0.156,91.202l-48.321,42.909c-1.694,1.504-2.246,3.916-1.378,6.009L753.15,2086.966z"/>
				<path style="fill:#91B3FA;" d="M1029.653,1996.461c-16.207-4.843-30.38-14.71-40.684-28.508
					c-12.674-16.975-17.977-37.873-14.934-58.84c6.271-43.269,46.586-73.373,89.872-67.107c43.328,6.363,73.389,46.607,67.11,89.883
					c-3.039,20.97-14.064,39.498-31.038,52.167c-16.976,12.679-37.874,17.987-58.845,14.938
					C1037.217,1998.422,1033.377,1997.574,1029.653,1996.461z M1069.262,1864.607c-2.703-0.808-5.494-1.427-8.367-1.848
					c-31.838-4.609-61.491,17.534-66.109,49.371c-2.234,15.416,1.662,30.795,10.986,43.275
					c9.328,12.491,22.957,20.582,38.377,22.839l0,0c15.422,2.236,30.797-1.667,43.28-10.986
					c12.491-9.328,20.598-22.956,22.836-38.384C1114.466,1899.916,1096.513,1872.75,1069.262,1864.607z"/>
				<path style="fill:#91B3FA;" d="M997.58,2109.054c-6.358-1.9-12.667-4.139-18.93-6.715c-12.432-5.125-24.355-11.521-35.464-19.03
					c-0.497-0.341-0.993-0.682-1.49-1.023c-3.838-2.643-5.365-7.385-4.104-11.625c0.308-1.03,0.783-2.031,1.424-2.961
					c3.285-4.768,9.812-5.939,14.581-2.676c10.306,7.109,21.425,13.135,33.044,17.922l0.005,0.001
					c0.637,0.265,1.281,0.521,1.917,0.775c27.602,11.08,56.92,14.86,85.698,11.49c15.621-1.831,31.09-5.779,46.041-11.839
					c0.122-0.049,0.243-0.098,0.365-0.147c0.373-0.157,0.743-0.302,1.11-0.459c43.543-18.111,77.433-52.089,95.419-95.684
					c2.332-5.641,4.354-11.353,6.078-17.122c11.593-38.815,9.5-80.094-6.262-118.01c-18.11-43.544-52.093-77.424-95.682-95.408
					c-43.571-17.958-91.584-17.919-135.13,0.18c-43.543,18.109-77.433,52.089-95.419,95.684c-2.293,5.545-4.29,11.191-5.996,16.9
					c-7.395,24.766-9.289,50.864-5.454,76.441c0.235,1.577,0.11,3.121-0.323,4.552c-1.126,3.768-4.342,6.751-8.492,7.37
					c-5.729,0.842-11.066-3.082-11.926-8.822c-4.289-28.619-2.171-57.826,6.095-85.525c1.911-6.397,4.144-12.708,6.704-18.912
					c20.128-48.779,58.04-86.793,106.762-107.053c48.715-20.252,102.39-20.372,151.174-0.205
					c48.775,20.121,86.791,58.028,107.045,106.755c17.641,42.41,19.979,88.593,7.008,132.019c-1.926,6.446-4.19,12.844-6.792,19.152
					C1197.619,2089.508,1093.425,2137.694,997.58,2109.054z"/>
			</g>
		</g>
		<g>
			<g>
				<path style="fill:#91B3FA;" d="M1760.145,2555.785c-7.883,0.704-15.187-4.65-16.739-12.587
					c-3.401-17.358-6.095-35.123-8.013-52.797c-0.933-8.6,5.28-16.327,13.877-17.26c0.104-0.009,0.204-0.018,0.304-0.027
					c8.475-0.756,16.032,5.41,16.953,13.907c1.821,16.793,4.383,33.667,7.611,50.156c1.663,8.485-3.869,16.717-12.359,18.377
					C1761.234,2555.664,1760.688,2555.737,1760.145,2555.785z M1749.026,2419.822c-0.61,0.054-1.231,0.073-1.859,0.056
					c-8.644-0.248-15.453-7.458-15.205-16.102c0.513-17.756,1.789-35.667,3.795-53.231c0.981-8.593,8.707-14.741,17.334-13.786
					c8.593,0.983,14.76,8.748,13.78,17.334c-1.906,16.696-3.117,33.709-3.601,50.585
					C1763.039,2412.695,1756.821,2419.126,1749.026,2419.822z M1768.119,2284.792c-1.736,0.155-3.529,0.02-5.314-0.441
					c-8.37-2.17-13.404-10.712-11.237-19.084c4.438-17.161,9.681-34.345,15.582-51.071c2.883-8.155,11.827-12.423,19.977-9.558
					c8.154,2.877,12.434,11.824,9.557,19.977c-5.605,15.883-10.581,32.196-14.798,48.496
					C1780.183,2279.699,1774.529,2284.22,1768.119,2284.792z M1816.938,2157.395c-2.87,0.256-5.843-0.277-8.59-1.702
					c-7.676-3.982-10.668-13.437-6.686-21.111c8.175-15.744,17.126-31.324,26.606-46.307c4.627-7.297,14.295-9.474,21.607-4.857
					c7.306,4.623,9.48,14.298,4.857,21.606c-9.004,14.228-17.509,29.025-25.271,43.989
					C1826.9,2153.939,1822.089,2156.935,1816.938,2157.395z M1892.938,2044.085c-4.025,0.359-8.183-0.83-11.509-3.646
					c-6.603-5.588-7.423-15.47-1.834-22.067c11.433-13.505,23.608-26.713,36.184-39.245c6.12-6.11,16.036-6.098,22.144,0.032
					c6.104,6.125,6.089,16.038-0.035,22.147c-11.956,11.912-23.526,24.465-34.392,37.299
					C1900.724,2041.88,1896.898,2043.732,1892.938,2044.085z M1992.104,1950.417c-5.212,0.465-10.538-1.688-13.917-6.176
					c-5.201-6.911-3.817-16.725,3.091-21.929c14.159-10.659,28.955-20.847,43.974-30.269c7.33-4.597,16.991-2.382,21.588,4.945
					c4.595,7.321,2.382,16.988-4.943,21.584c-14.271,8.955-28.327,18.629-41.781,28.759
					C1997.693,1949.156,1994.916,1950.166,1992.104,1950.417z M2560.316,1862.28c-2.16,0.193-4.39-0.062-6.568-0.826
					c-15.874-5.572-32.206-10.525-48.54-14.718c-8.375-2.151-13.423-10.685-11.271-19.057c2.147-8.378,10.681-13.426,19.059-11.275
					c17.202,4.416,34.405,9.63,51.122,15.495c8.162,2.864,12.454,11.803,9.59,19.962
					C2571.61,1857.846,2566.244,1861.751,2560.316,1862.28z M2109.487,1881.099c-6.47,0.577-12.879-2.941-15.682-9.2
					c-3.536-7.895-0.002-17.158,7.89-20.693c16.177-7.246,32.866-13.876,49.605-19.706c8.178-2.806,17.095,1.465,19.94,9.636
					c2.844,8.166-1.472,17.093-9.64,19.94c-15.897,5.533-31.744,11.83-47.105,18.709
					C2112.861,1880.515,2111.171,1880.949,2109.487,1881.099z M2427.332,1831.91c-1.03,0.092-2.083,0.088-3.15-0.032
					c-16.729-1.878-33.762-3.054-50.623-3.508c-8.646-0.236-15.466-7.432-15.234-16.075c0.236-8.643,7.423-15.505,16.075-15.233
					c17.741,0.48,35.664,1.718,53.267,3.69c8.595,0.965,14.782,8.715,13.817,17.307
					C2440.643,1825.583,2434.594,1831.262,2427.332,1831.91z M2239.411,1839.739c-7.871,0.702-15.167-4.634-16.734-12.557
					c-1.678-8.485,3.838-16.72,12.322-18.405c17.37-3.435,35.123-6.168,52.764-8.111c0.109-0.016,0.222-0.026,0.331-0.036
					c8.462-0.755,16.012,5.394,16.95,13.877c0.948,8.599-5.248,16.336-13.847,17.282c-16.757,1.851-33.618,4.449-50.122,7.715
					C2240.52,1839.61,2239.962,1839.69,2239.411,1839.739z"/>
				<path style="fill:#91B3FA;" d="M2660.349,1907.928c-3.071,0.274-6.256-0.35-9.138-1.997
					c-7.011-4.004-14.223-7.924-21.435-11.665c-7.677-3.976-10.68-13.429-6.701-21.104c3.975-7.681,13.431-10.692,21.108-6.698
					c7.588,3.929,15.171,8.054,22.551,12.265c7.509,4.286,10.125,13.853,5.839,21.359
					C2669.931,1904.721,2665.283,1907.488,2660.349,1907.928z"/>
			</g>
			<g>
				<path style="fill:#91B3FA;" d="M2949.636,2287.698c-7.528,0.672-14.64-4.196-16.555-11.756
					c-1.979-7.825-4.156-15.743-6.472-23.526c-2.465-8.291,2.256-17.009,10.544-19.475c8.324-2.475,17.01,2.259,19.475,10.545
					c2.436,8.195,4.73,16.532,6.816,24.772c2.121,8.384-2.956,16.9-11.34,19.023
					C2951.281,2287.49,2950.455,2287.625,2949.636,2287.698z"/>
				<path style="fill:#91B3FA;" d="M2413.343,3045.176c-7.176,0.64-14.392,1.161-21.642,1.563
					c-8.635,0.476-16.023-6.136-16.502-14.77s6.173-16.057,14.767-16.505c16.734-0.928,33.392-2.531,49.7-4.797
					c8.575-1.177,16.474,4.787,17.665,13.352c1.191,8.571-4.79,16.48-13.356,17.668
					C2433.889,3043.09,2423.582,3044.262,2413.343,3045.176z M2309.036,3045.66c-0.871,0.078-1.764,0.083-2.667,0.01
					c-17.415-1.4-34.965-3.555-52.159-6.405c-8.53-1.413-14.301-9.476-12.888-18.004c1.416-8.533,9.493-14.326,18.01-12.888
					c16.331,2.706,33.002,4.75,49.552,6.085c8.619,0.692,15.044,8.243,14.351,16.859
					C2322.612,3039.038,2316.496,3044.994,2309.036,3045.66z M2524.612,3024.715c-7.354,0.656-14.366-3.981-16.445-11.342
					c-2.349-8.327,2.495-16.976,10.818-19.327c15.922-4.491,31.866-9.728,47.397-15.572c8.1-3.032,17.126,1.051,20.17,9.144
					c3.044,8.098-1.051,17.128-9.146,20.172c-16.354,6.151-33.149,11.666-49.916,16.399
					C2526.533,3024.457,2525.569,3024.629,2524.612,3024.715z M2177.194,3020.217c-1.98,0.177-4.025-0.028-6.039-0.653
					c-16.666-5.188-33.312-11.152-49.472-17.723c-8.01-3.258-11.861-12.39-8.603-20.4c3.258-8.016,12.386-11.87,20.403-8.606
					c15.344,6.239,31.15,11.903,46.979,16.828c8.258,2.566,12.868,11.349,10.297,19.604
					C2188.817,3015.508,2183.326,3019.67,2177.194,3020.217z M2648.899,2974.198c-6.031,0.538-12.091-2.47-15.163-8.135
					c-4.124-7.603-1.303-17.109,6.3-21.233c14.535-7.88,28.938-16.498,42.811-25.608c7.228-4.748,16.938-2.74,21.685,4.494
					c4.744,7.229,2.733,16.932-4.495,21.679c-14.604,9.594-29.767,18.666-45.073,26.965
					C2653.029,2973.412,2650.964,2974.014,2648.899,2974.198z M2759.094,2897.63c-4.822,0.43-9.776-1.375-13.203-5.3
					c-5.685-6.518-5.011-16.41,1.507-22.095c12.497-10.904,24.681-22.462,36.212-34.348c6.013-6.217,15.923-6.371,22.142-0.342
					c6.208,6.023,6.359,15.933,0.339,22.145c-12.136,12.511-24.956,24.672-38.109,36.144
					C2765.395,2896.092,2762.274,2897.346,2759.094,2897.63z M2849.975,2798.861c-3.668,0.327-7.462-0.63-10.663-2.984
					c-6.967-5.12-8.461-14.923-3.338-21.89c9.836-13.375,19.213-27.304,27.872-41.415c4.522-7.367,14.157-9.683,21.537-5.152
					c7.368,4.526,9.677,14.164,5.152,21.537c-9.115,14.845-18.982,29.512-29.33,43.583
					C2858.434,2796.307,2854.295,2798.476,2849.975,2798.861z M2917.148,2682.631c-2.541,0.227-5.17-0.165-7.672-1.262
					c-7.919-3.475-11.519-12.71-8.043-20.628c6.67-15.192,12.763-30.837,18.114-46.507c2.795-8.183,11.706-12.553,19.876-9.763
					c8.186,2.794,12.555,11.696,9.76,19.879c-5.635,16.506-12.052,32.984-19.072,48.975
					C2927.729,2678.745,2922.652,2682.139,2917.148,2682.631z M2957.181,2554.439c-1.429,0.128-2.899,0.056-4.378-0.23
					c-8.489-1.643-14.04-9.862-12.393-18.348c3.146-16.248,5.642-32.842,7.413-49.335c0.924-8.6,8.669-14.812,17.241-13.895
					c8.599,0.922,14.821,8.644,13.897,17.244c-1.865,17.361-4.491,34.833-7.807,51.937
					C2969.797,2548.824,2963.956,2553.835,2957.181,2554.439z M2968.067,2420.676c-0.32,0.029-0.644,0.045-0.969,0.056
					c-8.643,0.243-15.849-6.569-16.09-15.212c-0.343-12.203-1.066-24.536-2.149-36.673c-0.392-4.393-0.835-8.774-1.319-13.134
					c-0.955-8.598,5.239-16.342,13.834-17.293c8.683-1.137,16.336,5.236,17.292,13.827c0.511,4.591,0.974,9.192,1.386,13.816
					c1.139,12.764,1.899,25.746,2.258,38.579C2982.547,2412.96,2976.246,2419.946,2968.067,2420.676z"/>
				<path style="fill:#91B3FA;" d="M2053.872,2966.171c-3.101,0.277-6.311-0.364-9.209-2.034c-7.342-4.239-14.733-8.713-21.967-13.3
					c-7.307-4.63-9.475-14.304-4.845-21.608c4.632-7.303,14.298-9.48,21.608-4.845c6.873,4.355,13.894,8.604,20.864,12.631
					c7.487,4.319,10.056,13.896,5.732,21.387C2063.402,2962.993,2058.776,2965.733,2053.872,2966.171z"/>
			</g>
			<g>
				
					<linearGradient id="SVGID_00000183230092031248019770000002455558872359485367_" gradientUnits="userSpaceOnUse" x1="1851.4574" y1="2812.0718" x2="2920.1526" y2="2314.2329" gradientTransform="matrix(0.996 -0.0889 0.0889 0.996 -268.5736 89.1167)">
					<stop  offset="0" style="stop-color:#4F52FF"/>
					<stop  offset="1" style="stop-color:#4042E2"/>
				</linearGradient>
				<path style="fill:url(#SVGID_00000183230092031248019770000002455558872359485367_);" d="M2058.774,2783.387
					c2.181,2.233,5.54,2.838,8.363,1.504l80.537-38.053c35.083,22.352,73.982,39.271,115.543,49.532l28.011,84.495
					c0.982,2.965,3.737,4.978,6.859,5.015l106.837,1.277c3.123,0.036,5.924-1.912,6.978-4.849l30.022-83.802
					c41.795-9.266,81.087-25.249,116.693-46.758l79.606,39.967c2.79,1.4,6.162,0.877,8.396-1.304l76.448-74.642
					c2.235-2.183,2.839-5.541,1.504-8.363l-38.052-80.537c22.352-35.082,39.271-73.983,49.531-115.543l84.496-28.012
					c2.963-0.982,4.977-3.736,5.015-6.859l1.277-106.838c0.038-3.122-1.91-5.924-4.85-6.976l-83.802-30.023
					c-9.265-41.795-25.247-81.087-46.757-116.692l39.967-79.607c1.399-2.789,0.876-6.161-1.304-8.395l-74.643-76.447
					c-2.181-2.236-5.54-2.838-8.363-1.505l-80.537,38.053c-35.082-22.354-73.982-39.272-115.543-49.532l-28.011-84.497
					c-0.983-2.963-3.736-4.977-6.859-5.015l-106.838-1.276c-3.123-0.038-5.924,1.91-6.977,4.85l-30.022,83.802
					c-41.795,9.264-81.088,25.249-116.694,46.757l-79.605-39.966c-2.79-1.402-6.164-0.877-8.397,1.303l-76.447,74.642
					c-2.234,2.181-2.838,5.539-1.505,8.363l38.052,80.537c-22.353,35.082-39.271,73.983-49.531,115.543l-84.496,28.012
					c-2.962,0.981-4.978,3.737-5.013,6.86l-1.277,106.835c-0.037,3.123,1.91,5.924,4.849,6.978l83.802,30.022
					c9.265,41.794,25.249,81.086,46.756,116.693l-39.966,79.606c-1.401,2.791-0.878,6.161,1.303,8.397L2058.774,2783.387z"/>
				<path style="fill:#91B3FA;" d="M2366.588,2524.419c-52.145,4.654-101.35-29.552-113.913-81.943
					c-13.807-57.592,21.81-115.67,79.396-129.48c27.899-6.697,56.731-2.115,81.181,12.879
					c24.456,14.994,41.609,38.616,48.296,66.514c13.808,57.592-21.81,115.67-79.395,129.48
					C2376.96,2523.113,2371.757,2523.958,2366.588,2524.419z M2349.965,2335.385c-4.027,0.359-8.049,1.013-12.054,1.972
					c-44.151,10.585-71.459,55.124-60.875,99.273c10.588,44.154,55.114,71.481,99.276,60.877
					c44.152-10.584,71.459-55.124,60.875-99.272c-5.13-21.392-18.279-39.502-37.031-51
					C2384.916,2337.891,2367.453,2333.824,2349.965,2335.385z"/>
				<path style="fill:#91B3FA;" d="M2382.563,2678.728c-8.956,0.799-18.004,1.153-27.117,1.045l0,0
					c-2.868-0.033-5.737-0.114-8.604-0.24c-14.134-0.624-28.196-2.372-41.969-5.214c-0.188-0.039-0.375-0.077-0.563-0.115
					c-0.532-0.112-1.064-0.224-1.596-0.343c-1.036-0.221-2.07-0.454-3.101-0.687c-2.714-0.617-4.611-2.911-4.849-5.542
					c-0.057-0.639-0.015-1.3,0.135-1.959c0.768-3.372,4.13-5.471,7.499-4.71c17.355,3.96,35.251,6.072,53.195,6.282
					c89.131,1.08,168.128-44.585,213.654-114.159c25.327-38.695,40.293-84.792,40.883-134.365c0.106-8.693-0.229-17.328-0.994-25.87
					c-5.136-57.487-29.684-111.014-70.55-152.865c-46.939-48.077-109.793-74.997-176.977-75.799
					c-138.754-1.644-252.881,109.836-254.537,248.524c-0.103,8.551,0.229,17.076,0.987,25.538
					c3.279,36.67,14.545,72.216,33.115,104.046c0.479,0.823,0.751,1.708,0.828,2.597c0.209,2.339-0.916,4.705-3.082,5.967
					c-2.995,1.735-6.824,0.744-8.568-2.256c-19.495-33.417-31.328-70.736-34.77-109.234c-0.796-8.882-1.143-17.829-1.038-26.804
					c1.738-145.61,121.655-262.643,267.212-260.906c70.533,0.842,136.513,29.104,185.791,79.575
					c42.904,43.936,68.672,100.129,74.067,160.48c0.8,8.968,1.151,18.031,1.045,27.154c-0.844,70.537-29.103,136.52-79.572,185.797
					C2499.139,2647.574,2442.927,2673.341,2382.563,2678.728z"/>
			</g>
		</g>
		<g>
			<g>
				
					<linearGradient id="SVGID_00000009563863229786437670000014691991573575051934_" gradientUnits="userSpaceOnUse" x1="2290.9434" y1="708.7131" x2="2384.8159" y2="944.1905">
					<stop  offset="0" style="stop-color:#09005D"/>
					<stop  offset="1" style="stop-color:#1A0F91"/>
				</linearGradient>
				<path style="fill:url(#SVGID_00000009563863229786437670000014691991573575051934_);" d="M2346.604,835.381
					c0,0,31.647,15.393,37.465,33.076c4.669,14.188,39.662,16.018,43.118,43.922c1.785,14.407,12.447,25.945,26.796,28.144
					c35.739,5.479,90.817,24.037,99.629,86.089c6.726,47.363-17.418,65.323-42.758,71.539c-18.612,4.566-30.98,22.668-27.215,41.457
					c3.61,18.023-1.774,38.857-32.996,55.332c-69.967,36.919-139.84-87.464-139.84-87.464l-14.32-217.18L2346.604,835.381z"/>
				
					<linearGradient id="SVGID_00000080196037297238249970000004778523848923164294_" gradientUnits="userSpaceOnUse" x1="1746.4672" y1="645.7091" x2="1919.8879" y2="1040.2805" gradientTransform="matrix(0.9951 0.0992 -0.0992 0.9951 452.2618 21.8756)">
					<stop  offset="0" style="stop-color:#FEBBBA"/>
					<stop  offset="1" style="stop-color:#FF928E"/>
				</linearGradient>
				<path style="fill:url(#SVGID_00000080196037297238249970000004778523848923164294_);" d="M2058.779,706.436
					c0,0,65.247,253.146,210.288,344.688c0,0-59.068,77.833-86.083,80.218c0,0-142.268-224.958-141.851-397.603L2058.779,706.436z"
					/>
				
					<linearGradient id="SVGID_00000029031184304034075900000018077777252735622544_" gradientUnits="userSpaceOnUse" x1="2671.9019" y1="2174.5767" x2="2658.4709" y2="1899.241">
					<stop  offset="0" style="stop-color:#09005D"/>
					<stop  offset="1" style="stop-color:#1A0F91"/>
				</linearGradient>
				<path style="fill:url(#SVGID_00000029031184304034075900000018077777252735622544_);" d="M2634.197,2197.174l4.527,37.221
					c0.859,7.06,6.419,12.644,13.486,13.451c11.932,1.364,31.079,2.76,49.814,0.78c8.223-0.869,13.562-9.196,11.057-17.076
					c-4.567-14.369-12.922-35.938-24.969-48.631h-41.289C2639.189,2182.918,2633.275,2189.596,2634.197,2197.174z"/>
				
					<linearGradient id="SVGID_00000033337067419563376620000008353534163985298309_" gradientUnits="userSpaceOnUse" x1="2297.7488" y1="2530.1648" x2="2412.2996" y2="1191.3525">
					<stop  offset="0" style="stop-color:#FEBBBA"/>
					<stop  offset="1" style="stop-color:#FF928E"/>
				</linearGradient>
				<path style="fill:url(#SVGID_00000033337067419563376620000008353534163985298309_);" d="M2310.805,1761.159l-6.969,40.995
					c0,0,23.338,236.392,27.489,330.948c0.651,14.824-3.184,29.475-10.965,42.109l-40.58,65.899l103.134-60.859l2.054-12.586
					l-16.884-23.213l22.115-264.817c1.299-15.557-1.911-31.159-9.246-44.939l-21.332-40.076L2310.805,1761.159z"/>
				
					<linearGradient id="SVGID_00000109731512086483377490000006697762284779893146_" gradientUnits="userSpaceOnUse" x1="2331.5479" y1="2194.4465" x2="2367.364" y2="1948.2111">
					<stop  offset="0" style="stop-color:#09005D"/>
					<stop  offset="1" style="stop-color:#1A0F91"/>
				</linearGradient>
				<path style="fill:url(#SVGID_00000109731512086483377490000006697762284779893146_);" d="M2272.988,2250.657h32.912
					c6.16,0,11.97-2.829,15.727-7.711c10.26-13.332,31.518-39.343,41.683-40.022c13.684-0.914,11.933,47.733,11.933,47.733h7.67
					l9.716-60.449c2.445-15.209-5.119-30.276-18.776-37.402l0,0c0,0-3.128,23.132-20.089,33.364
					c-16.96,10.233-69.019,46.876-69.019,46.876s-6.375-0.909-13.376,0.356C2260.985,2235.279,2262.435,2250.657,2272.988,2250.657z
					"/>
				
					<linearGradient id="SVGID_00000163774702114054342190000006796782725047087549_" gradientUnits="userSpaceOnUse" x1="2528.1746" y1="2550.0859" x2="2642.7556" y2="1210.9204">
					<stop  offset="0" style="stop-color:#FEBBBA"/>
					<stop  offset="1" style="stop-color:#FF928E"/>
				</linearGradient>
				<path style="fill:url(#SVGID_00000163774702114054342190000006796782725047087549_);" d="M2452.065,1780.629
					c0,0,136.719,259.343,158.453,318.556c21.733,59.212,29.347,108.608,29.638,113.286c0.456,7.309,9.547,14.32,34.606,14.32
					c12.932,0,19.266-5.184,22.367-10.202c2.646-4.281,2.782-9.638,0.552-14.15c-7.908-16.005-33.006-67.154-42.301-90.352
					c-11.098-27.698-34.97-153.223-48.062-196.865c-13.092-43.643-27.891-90.984-84.903-134.592
					C2522.416,1780.629,2483.278,1742.297,2452.065,1780.629z"/>
				
					<linearGradient id="SVGID_00000106861646949647274210000004102008764688065155_" gradientUnits="userSpaceOnUse" x1="3078.5916" y1="646.5428" x2="2625.3179" y2="973.9077">
					<stop  offset="0" style="stop-color:#FF928E"/>
					<stop  offset="1" style="stop-color:#FE7062"/>
				</linearGradient>
				<path style="fill:url(#SVGID_00000106861646949647274210000004102008764688065155_);" d="M2365.697,1355.682
					c-35.267-149.442,54.076-233.965,54.076-233.965c-56.373-54.112-159.086-78.735-159.086-78.735s-98.01,71.654-86.383,127.739
					c6.815,32.872,68.892,196.894,68.892,196.894S2300.597,1394.781,2365.697,1355.682z"/>
				
					<linearGradient id="SVGID_00000030483716887950657940000011676506112088393396_" gradientUnits="userSpaceOnUse" x1="2474.7554" y1="1298.0415" x2="2148.2053" y2="2308.7947">
					<stop  offset="0" style="stop-color:#09005D"/>
					<stop  offset="1" style="stop-color:#1A0F91"/>
				</linearGradient>
				<path style="fill:url(#SVGID_00000030483716887950657940000011676506112088393396_);" d="M2443.89,1429.667
					c-14.352-43.238-78.193-73.984-78.193-73.984c-65.1,39.099-122.502,11.933-122.502,11.933s-12.873,49.205-3.988,94.933
					c8.885,45.728,64.628,339.605,64.628,339.605c87.834,17.797,222.92-17.905,222.92-17.905
					C2470.81,1684.919,2458.243,1472.905,2443.89,1429.667z"/>
				
					<linearGradient id="SVGID_00000155121551305388229390000014614039405405187731_" gradientUnits="userSpaceOnUse" x1="2287.6494" y1="1150.7678" x2="2330.1809" y2="913.4865">
					<stop  offset="0" style="stop-color:#FEBBBA"/>
					<stop  offset="1" style="stop-color:#FF928E"/>
				</linearGradient>
				<path style="fill:url(#SVGID_00000155121551305388229390000014614039405405187731_);" d="M2324.76,944.226l28.673,128.794
					c2.745,11.345-7.596,9.488-19.066,7.325c-18.783-3.541-42.992-10.835-51.085-25.45c-0.823-1.487-1.235-3.169-1.468-4.854
					l-12.318-89.309c-0.977-7.086,2.853-13.962,9.392-16.862l23.771-10.54C2311.812,929.273,2322.405,934.495,2324.76,944.226z"/>
				<g>
					
						<linearGradient id="SVGID_00000082354635205863268880000002131710096329595818_" gradientUnits="userSpaceOnUse" x1="2230.8743" y1="1007.5338" x2="2418.6199" y2="673.4095">
						<stop  offset="0" style="stop-color:#FEBBBA"/>
						<stop  offset="1" style="stop-color:#FF928E"/>
					</linearGradient>
					<path style="fill:url(#SVGID_00000082354635205863268880000002131710096329595818_);" d="M2291.118,821.596
						c0,0-33.958,14.339-57.049,63.41c-23.09,49.071-5.847,71.729,15.812,74.839c21.659,3.11,54.05,2.637,88.311-29.062
						C2372.453,899.083,2335.263,804.599,2291.118,821.596z"/>
					
						<linearGradient id="SVGID_00000093141634366110643320000006990020887098421376_" gradientUnits="userSpaceOnUse" x1="2271.2488" y1="716.5637" x2="2365.1213" y2="952.0412">
						<stop  offset="0" style="stop-color:#09005D"/>
						<stop  offset="1" style="stop-color:#1A0F91"/>
					</linearGradient>
					<path style="fill:url(#SVGID_00000093141634366110643320000006990020887098421376_);" d="M2315.161,904.585
						c0,0,25.621-71.793-38.03-72.642l-14.978,10.469c0,0-23.354-39.805,14.978-58.806c38.332-19,83.195-3.306,99.508,48.337
						c16.312,51.643,19.097,86.214-8.041,110.921c-27.139,24.708-38.323-3.308-38.323-3.308s14.779-23.11,8.763-35.474
						c-6.016-12.364-19.893,2.558-19.893,2.558L2315.161,904.585z"/>
					
						<linearGradient id="SVGID_00000183248638635077870560000015990309866395830674_" gradientUnits="userSpaceOnUse" x1="2270.8376" y1="1029.9902" x2="2458.5837" y2="695.8653">
						<stop  offset="0" style="stop-color:#FEBBBA"/>
						<stop  offset="1" style="stop-color:#FF928E"/>
					</linearGradient>
					<path style="fill:url(#SVGID_00000183248638635077870560000015990309866395830674_);" d="M2322.3,912.581
						c0,0,12.954-36.983,30.234-22.255c17.281,14.728-14.044,34.162-26.308,40.456L2322.3,912.581z"/>
				</g>
				<g>
					
						<linearGradient id="SVGID_00000109712646487986662430000007360456763223081138_" gradientUnits="userSpaceOnUse" x1="1699.823" y1="632.6363" x2="1819.6008" y2="905.1578" gradientTransform="matrix(0.9951 0.0992 -0.0992 0.9951 452.2618 21.8756)">
						<stop  offset="0" style="stop-color:#FEBBBA"/>
						<stop  offset="1" style="stop-color:#FF928E"/>
					</linearGradient>
					<path style="fill:url(#SVGID_00000109712646487986662430000007360456763223081138_);" d="M2045.75,750.029
						c-1.8,4.209,13.368,12.402,24.459-4.44c1.174-8.485,9.99-44.457,5.593-51.903c-23.423-39.656-51.808-44.901-51.808-44.901
						c-6.293,9.104-13.607,16.59-17.817,27.942c-3.188,8.597-2.717,18.17,0.941,26.648c3.672,8.509,8.732,19.597,13.687,28.374
						C2030.183,748.36,2045.75,750.029,2045.75,750.029z"/>
				</g>
				
					<linearGradient id="SVGID_00000141428887218140966290000002833795292920402876_" gradientUnits="userSpaceOnUse" x1="5047.354" y1="2672.1436" x2="5319.9751" y2="2672.1436" gradientTransform="matrix(-0.447 0.8946 -0.8946 -0.447 6887.7129 -2292.5178)">
					<stop  offset="0" style="stop-color:#FEBBBA"/>
					<stop  offset="1" style="stop-color:#FF928E"/>
				</linearGradient>
				<path style="fill:url(#SVGID_00000141428887218140966290000002833795292920402876_);" d="M2435.624,1161.5
					c0,0-262.279,320.262-458.231-44.397c0,0-3.761-9.318-1.41-22.778c1.188-6.796-3.307-30.898-5.776-43.212
					c-0.794-3.959,2.019-7.7,6.038-8.088l0,0c3.149-0.303,6.236,1.019,8.189,3.507l35.792,45.579
					c2.669,9.025-1.63,18.649-10.133,22.683l0,0c-5.424,2.574-7.134,9.463-3.493,14.236
					c149.022,195.345,398.274-19.012,402.836-16.495C2425.62,1121.467,2444.317,1131.342,2435.624,1161.5z"/>
			</g>
			<g>
				
					<linearGradient id="SVGID_00000160901040573714627000000017124361490896942472_" gradientUnits="userSpaceOnUse" x1="3409.8936" y1="1482.7241" x2="2936.4739" y2="2011.5444">
					<stop  offset="0" style="stop-color:#09005D"/>
					<stop  offset="1" style="stop-color:#1A0F91"/>
				</linearGradient>
				<path style="fill:url(#SVGID_00000160901040573714627000000017124361490896942472_);" d="M2278.645,3239.467
					c5.672,0,10.271-3.633,10.271-8.115v-969.996c0-4.482-4.598-8.115-10.271-8.115c-5.673,0-10.271,3.633-10.271,8.115v969.996
					C2268.375,3235.833,2272.972,3239.467,2278.645,3239.467z"/>
				
					<linearGradient id="SVGID_00000093173947833230731140000005479396738608806571_" gradientUnits="userSpaceOnUse" x1="3564.3953" y1="1621.0342" x2="3090.9756" y2="2149.8542">
					<stop  offset="0" style="stop-color:#09005D"/>
					<stop  offset="1" style="stop-color:#1A0F91"/>
				</linearGradient>
				<path style="fill:url(#SVGID_00000093173947833230731140000005479396738608806571_);" d="M2556.967,3239.467
					c5.673,0,10.271-3.633,10.271-8.115v-969.996c0-4.482-4.598-8.115-10.271-8.115c-5.673,0-10.27,3.633-10.27,8.115v969.996
					C2546.697,3235.833,2551.294,3239.467,2556.967,3239.467z"/>
				
					<linearGradient id="SVGID_00000133498155687343870050000008604400205530534288_" gradientUnits="userSpaceOnUse" x1="3799.7336" y1="1831.7183" x2="3326.3135" y2="2360.5391">
					<stop  offset="0" style="stop-color:#09005D"/>
					<stop  offset="1" style="stop-color:#1A0F91"/>
				</linearGradient>
				<path style="fill:url(#SVGID_00000133498155687343870050000008604400205530534288_);" d="M3240.769,3245.619
					c1.342,0,2.702-0.209,4.014-0.649c5.219-1.753,7.653-6.518,5.434-10.645l-525.199-976.146c-2.219-4.124-8.258-6.042-13.47-4.292
					c-5.219,1.753-7.652,6.518-5.434,10.645l525.199,976.146C3232.973,3243.765,3236.774,3245.619,3240.769,3245.619z"/>
				
					<linearGradient id="SVGID_00000165916185898715811810000011711389336190723514_" gradientUnits="userSpaceOnUse" x1="3619.6523" y1="1670.4998" x2="3146.2324" y2="2199.3201">
					<stop  offset="0" style="stop-color:#09005D"/>
					<stop  offset="1" style="stop-color:#1A0F91"/>
				</linearGradient>
				<path style="fill:url(#SVGID_00000165916185898715811810000011711389336190723514_);" d="M2916.359,3245.619
					c1.342,0,2.702-0.209,4.014-0.649c5.219-1.753,7.652-6.518,5.434-10.645l-525.199-976.146c-2.22-4.124-8.256-6.042-13.47-4.292
					c-5.219,1.753-7.653,6.518-5.434,10.645l525.199,976.146C2908.563,3243.765,2912.364,3245.619,2916.359,3245.619z"/>
				
					<linearGradient id="SVGID_00000173882251803495042470000005610564757166090378_" gradientUnits="userSpaceOnUse" x1="3292.3047" y1="1377.4508" x2="2818.8857" y2="1906.2704">
					<stop  offset="0" style="stop-color:#09005D"/>
					<stop  offset="1" style="stop-color:#1A0F91"/>
				</linearGradient>
				<path style="fill:url(#SVGID_00000173882251803495042470000005610564757166090378_);" d="M2262.699,2270.282h481.095
					c7.995,0,14.476-5.12,14.476-11.438l0,0c0-6.317-6.481-11.438-14.476-11.438h-481.095c-7.994,0-14.475,5.121-14.475,11.438l0,0
					C2248.224,2265.162,2254.705,2270.282,2262.699,2270.282z"/>
				
					<linearGradient id="SVGID_00000164487580496119609150000017994077818744866489_" gradientUnits="userSpaceOnUse" x1="3439.8567" y1="1509.5454" x2="2966.4365" y2="2038.366">
					<stop  offset="0" style="stop-color:#09005D"/>
					<stop  offset="1" style="stop-color:#1A0F91"/>
				</linearGradient>
				<path style="fill:url(#SVGID_00000164487580496119609150000017994077818744866489_);" d="M2470.5,2418.731h325.371
					c5.673,0,10.27-3.633,10.27-8.115c0-4.482-4.597-8.115-10.27-8.115H2470.5c-5.673,0-10.271,3.633-10.271,8.115
					C2460.229,2415.098,2464.827,2418.731,2470.5,2418.731z"/>
				
					<linearGradient id="SVGID_00000031904111895689691760000002351052981761308862_" gradientUnits="userSpaceOnUse" x1="3587.0217" y1="1641.2906" x2="3113.6016" y2="2170.1113">
					<stop  offset="0" style="stop-color:#09005D"/>
					<stop  offset="1" style="stop-color:#1A0F91"/>
				</linearGradient>
				
					<rect x="2570.334" y="2587.115" style="fill:url(#SVGID_00000031904111895689691760000002351052981761308862_);" width="325.371" height="16.23"/>
				
					<linearGradient id="SVGID_00000126315874478330249500000014650010870616749733_" gradientUnits="userSpaceOnUse" x1="3732.416" y1="1771.4561" x2="3258.9968" y2="2300.2756">
					<stop  offset="0" style="stop-color:#09005D"/>
					<stop  offset="1" style="stop-color:#1A0F91"/>
				</linearGradient>
				
					<rect x="2666.984" y="2771.729" style="fill:url(#SVGID_00000126315874478330249500000014650010870616749733_);" width="325.371" height="16.23"/>
				
					<linearGradient id="SVGID_00000173141927057673059080000007166287952816473787_" gradientUnits="userSpaceOnUse" x1="3880.4246" y1="1903.9576" x2="3407.0054" y2="2432.7773">
					<stop  offset="0" style="stop-color:#09005D"/>
					<stop  offset="1" style="stop-color:#1A0F91"/>
				</linearGradient>
				<path style="fill:url(#SVGID_00000173141927057673059080000007166287952816473787_);" d="M2768.339,2972.573h325.372
					c5.672,0,10.271-3.633,10.271-8.115c0-4.482-4.598-8.115-10.271-8.115h-325.372c-5.672,0-10.271,3.633-10.271,8.115
					C2758.068,2968.941,2762.667,2972.573,2768.339,2972.573z"/>
				
					<linearGradient id="SVGID_00000004506701235097691340000017078789107288459965_" gradientUnits="userSpaceOnUse" x1="4026.5671" y1="2034.7891" x2="3553.1475" y2="2563.6094">
					<stop  offset="0" style="stop-color:#09005D"/>
					<stop  offset="1" style="stop-color:#1A0F91"/>
				</linearGradient>
				<path style="fill:url(#SVGID_00000004506701235097691340000017078789107288459965_);" d="M2866.331,3157.191h325.371
					c5.673,0,10.27-3.633,10.27-8.115c0-4.482-4.598-8.115-10.27-8.115h-325.371c-5.673,0-10.271,3.633-10.271,8.115
					C2856.06,3153.558,2860.657,3157.191,2866.331,3157.191z"/>
			</g>
		</g>
		<g>
			<g>
				
					<linearGradient id="SVGID_00000038378411866929016170000004870794877415002761_" gradientUnits="userSpaceOnUse" x1="1263.222" y1="2916.2551" x2="1251.4697" y2="3060.6384">
					<stop  offset="0" style="stop-color:#09005D"/>
					<stop  offset="1" style="stop-color:#1A0F91"/>
				</linearGradient>
				<path style="fill:url(#SVGID_00000038378411866929016170000004870794877415002761_);" d="M1318.52,3230.359
					c-32.463-28.261-102.218-50.899-102.218-50.899l-41.969,0.917c-10.651,11.983-15.467,35.205-17.523,49.761
					c7.902,4.736,22.711,8.882,49.865,10.176C1256.952,3242.71,1297.528,3235.361,1318.52,3230.359z"/>
				
					<linearGradient id="SVGID_00000075869645685167658230000017350014508234475945_" gradientUnits="userSpaceOnUse" x1="1242.3303" y1="3263.6079" x2="1244.0093" y2="3043.675">
					<stop  offset="0" style="stop-color:#09005D"/>
					<stop  offset="1" style="stop-color:#1A0F91"/>
				</linearGradient>
				<path style="fill:url(#SVGID_00000075869645685167658230000017350014508234475945_);" d="M1318.52,3230.359
					c-20.991,5.002-61.568,12.352-111.846,9.956c-27.154-1.294-41.963-5.44-49.865-10.176c-0.165,1.169-0.319,2.3-0.45,3.347
					c-0.748,5.969,2.946,11.581,8.698,13.344c38.338,11.751,122.658,7.971,155.534,5.935c7.03-0.436,10.701-8.682,6.196-14.098
					C1324.448,3235.854,1321.647,3233.082,1318.52,3230.359z"/>
			</g>
			
				<linearGradient id="SVGID_00000152961097069995903370000004414830942651754909_" gradientUnits="userSpaceOnUse" x1="1177.7598" y1="3168.2188" x2="1242.1729" y2="3168.2188">
				<stop  offset="0" style="stop-color:#FEBBBA"/>
				<stop  offset="1" style="stop-color:#FF928E"/>
			</linearGradient>
			<path style="fill:url(#SVGID_00000152961097069995903370000004414830942651754909_);" d="M1193.988,3144.144l-16.228,33.373
				c0,6.427,4.478,11.964,10.76,13.323c6.503,1.406,15.131,2.307,23.506,0.23c5.236-1.298,9.071-5.8,9.703-11.158l20.444-35.767
				H1193.988z"/>
			<g>
				
					<linearGradient id="SVGID_00000170964556267729134690000000503445813756841112_" gradientUnits="userSpaceOnUse" x1="479.432" y1="3202.0747" x2="613.7419" y2="2988.8574">
					<stop  offset="0" style="stop-color:#09005D"/>
					<stop  offset="1" style="stop-color:#1A0F91"/>
				</linearGradient>
				<path style="fill:url(#SVGID_00000170964556267729134690000000503445813756841112_);" d="M500.404,3150.339
					c-12.214-27.19-8.72-39.418-32.901-36.713c-2.908,0.326-5.322,0.888-7.361,1.614c-1.525,4.491-1.623,9.454,0.014,14.165
					c6.113,17.593,10.777,51.704,34.223,81.295c4.927,6.218,12.463,9.824,20.395,9.956l26.663,0.444
					C516.151,3200.891,510.538,3172.901,500.404,3150.339z"/>
				
					<linearGradient id="SVGID_00000102537510713742402320000017016326548039440535_" gradientUnits="userSpaceOnUse" x1="637.0444" y1="3034.8975" x2="548.0641" y2="3128.9143">
					<stop  offset="0" style="stop-color:#09005D"/>
					<stop  offset="1" style="stop-color:#1A0F91"/>
				</linearGradient>
				<path style="fill:url(#SVGID_00000102537510713742402320000017016326548039440535_);" d="M543.126,3180.783
					c-20.463-14.407-19.989-77.307-19.989-77.307l-31.539-16.054l-23.782,17.235c-3.678,2.73-6.274,6.459-7.675,10.583
					c2.039-0.726,4.453-1.288,7.361-1.614c24.181-2.706,20.687,9.522,32.901,36.713c10.135,22.562,15.748,50.552,41.033,70.761
					l18.325,0.306c8.233,0.137,12.988-9.266,7.997-15.815C561.496,3197.373,552.931,3187.686,543.126,3180.783z"/>
			</g>
			
				<linearGradient id="SVGID_00000047745249598275332800000009905399237081902480_" gradientUnits="userSpaceOnUse" x1="486.6831" y1="3081.8208" x2="558.3034" y2="3081.8208">
				<stop  offset="0" style="stop-color:#FEBBBA"/>
				<stop  offset="1" style="stop-color:#FF928E"/>
			</linearGradient>
			<path style="fill:url(#SVGID_00000047745249598275332800000009905399237081902480_);" d="M523.33,3057.802l-35.27,29.621
				c-2.406,3.743-1.589,8.696,1.909,11.447c6.103,4.799,16.677,10.166,29.629,4.608l38.705-20.964L523.33,3057.802z"/>
			
				<linearGradient id="SVGID_00000114057152609271377110000011162054509502875288_" gradientUnits="userSpaceOnUse" x1="1072.1202" y1="2721.2178" x2="555.751" y2="3179.2705">
				<stop  offset="0" style="stop-color:#09005D"/>
				<stop  offset="1" style="stop-color:#1A0F91"/>
			</linearGradient>
			<path style="fill:url(#SVGID_00000114057152609271377110000011162054509502875288_);" d="M499.928,3072.399l28.94,21.587
				c4.249,3.931,14.72,4.338,19.415,0.952c47.984-34.593,503.092-243.785,593.28-276.461l-68.84-144.524
				C1072.724,2673.952,487.784,3061.223,499.928,3072.399z"/>
			
				<linearGradient id="SVGID_00000010991632057020744180000013823128547691542681_" gradientUnits="userSpaceOnUse" x1="1538.0713" y1="3308.9827" x2="1235.8894" y2="2855.7104">
				<stop  offset="0" style="stop-color:#09005D"/>
				<stop  offset="1" style="stop-color:#1A0F91"/>
			</linearGradient>
			<path style="fill:url(#SVGID_00000010991632057020744180000013823128547691542681_);" d="M1424.403,2791.689
				c-53.685-28.805-203.196-53.714-203.196-53.714l-173.904-47.09c0,0-47.751,142.438,35.918,168.144s204.607,13.534,255.311,6.812
				c0,0-67.782,48.683-148.931,284.512c0,0,27.313,0.582,49.531,5.776c0,0,181.111-225.417,200.092-283.57
				C1451.743,2834.205,1469.276,2815.766,1424.403,2791.689z"/>
			
				<linearGradient id="SVGID_00000068666613537580164220000004271704245757590159_" gradientUnits="userSpaceOnUse" x1="1657.1388" y1="2216.6448" x2="1410.9036" y2="2382.2937">
				<stop  offset="0" style="stop-color:#FEBBBA"/>
				<stop  offset="1" style="stop-color:#FF928E"/>
			</linearGradient>
			<path style="fill:url(#SVGID_00000068666613537580164220000004271704245757590159_);" d="M1528.483,2322.027
				c-37.616-2.651-151.912,22.193-151.912,22.193l58.691,48.258c0,0,46.262-11.254,77.089-17.28
				C1512.352,2375.198,1588.45,2326.254,1528.483,2322.027z"/>
			<g>
				
					<linearGradient id="SVGID_00000116211230411914040940000015050179133356643758_" gradientUnits="userSpaceOnUse" x1="1588.4031" y1="2430.458" x2="1572.7335" y2="2228.9927">
					<stop  offset="0" style="stop-color:#FEBBBA"/>
					<stop  offset="1" style="stop-color:#FF928E"/>
				</linearGradient>
				<path style="fill:url(#SVGID_00000116211230411914040940000015050179133356643758_);" d="M1662.835,2356.176
					c0,0-50.403,46.801-81.022,59.51c-30.619,12.708-48.52,26.556-67.492-7.346c-18.972-33.901-11.668-70.639,13.652-98.046
					c0,0,38.866-42.658,60.531-43.76S1662.835,2356.176,1662.835,2356.176z"/>
				
					<linearGradient id="SVGID_00000174591399936855438690000010314548713944033724_" gradientUnits="userSpaceOnUse" x1="5572.0039" y1="5629.3208" x2="5714.1147" y2="5812.2881" gradientTransform="matrix(0.3314 0.9435 -0.9435 0.3314 5129.9692 -4878.1821)">
					<stop  offset="0" style="stop-color:#09005D"/>
					<stop  offset="1" style="stop-color:#1A0F91"/>
				</linearGradient>
				<path style="fill:url(#SVGID_00000174591399936855438690000010314548713944033724_);" d="M1554.674,2314.777l1.603,4.565
					c0,0,31.974-32.36,44.557-18.214c12.583,14.146,48.927,74.922,77.116,80.887c27.176,5.751,51.837-16.552,53.551-37.564
					c0.108-1.329-0.909-2.495-2.228-2.692l-3.376-0.505c-2.312-0.346-3.028-3.33-1.125-4.687c1.806-1.288,1.293-4.151-0.872-4.633
					c-8.465-1.884-23.873-9.624-40.697-38.989c-23.873-41.667-52.251-64.788-83.297-54.697c-1.967,0.639-3.774-1.068-3.344-3.091
					c0.849-3.993-0.059-9.587-8.445-14.544c-14.584-8.621-39.511,5.758-52.042,40.287c-0.595,1.641-2.589,2.329-3.972,1.265
					c-4.873-3.75-14.949-8.352-18.392,13.954c-3.522,22.818,1.592,33.793,4.196,37.698c0.701,1.051,2.026,1.457,3.189,0.966
					l26.696-11.271c1.381-0.583,2.967,0.119,3.464,1.533L1554.674,2314.777z"/>
				
					<linearGradient id="SVGID_00000025416061143915183310000010285703242453719952_" gradientUnits="userSpaceOnUse" x1="1561.3652" y1="2432.561" x2="1545.6957" y2="2231.0957">
					<stop  offset="0" style="stop-color:#FEBBBA"/>
					<stop  offset="1" style="stop-color:#FF928E"/>
				</linearGradient>
				<path style="fill:url(#SVGID_00000025416061143915183310000010285703242453719952_);" d="M1549.358,2317.905
					c0,0,34.537-23.231,17.895-36.529c-16.642-13.298-39.481,23.801-36.091,38.001L1549.358,2317.905z"/>
			</g>
			
				<linearGradient id="SVGID_00000072963254739577279820000001661719992387919519_" gradientUnits="userSpaceOnUse" x1="2084.7551" y1="4231.2051" x2="2273.3291" y2="4231.2051" gradientTransform="matrix(0.4098 -0.6959 -0.8617 -0.5074 4648.7959 6059.4434)">
				<stop  offset="0" style="stop-color:#FEBBBA"/>
				<stop  offset="1" style="stop-color:#FF928E"/>
			</linearGradient>
			<path style="fill:url(#SVGID_00000072963254739577279820000001661719992387919519_);" d="M1863.932,2465.773
				c0,0,28.355,10.073,33.591-6.801c5.236-16.874-9.387-61.856-0.109-68.07c9.278-6.213,25.302-37.259,20.226-51.446l-11.618,11.037
				c0,0,7.917-26.037-0.776-37.126l-21.989,56.551C1883.257,2369.918,1854.11,2437.196,1863.932,2465.773z"/>
			
				<linearGradient id="SVGID_00000043456308568141275440000008578281276266737574_" gradientUnits="userSpaceOnUse" x1="1462.1084" y1="2886.1204" x2="1455.3931" y2="2404.8423">
				<stop  offset="0" style="stop-color:#FF928E"/>
				<stop  offset="1" style="stop-color:#FE7062"/>
			</linearGradient>
			<path style="fill:url(#SVGID_00000043456308568141275440000008578281276266737574_);" d="M1351.457,2353.446
				c0,0,50.552-55.777,161.057,31.281c76.156,59.997,350.588,47.8,350.588,47.8s-0.138,15.542,5.238,34.315
				c0,0-230.296,62.25-403.172,19.99c0,0-191.008,216.526-205.716,258.93c0,0-124.128,18.54-212.149-54.876
				c0,0,23.608-73.214,100.042-158.105C1246.588,2422.556,1351.457,2353.446,1351.457,2353.446z"/>
			
				<linearGradient id="SVGID_00000132798357408170830470000002414030435708527752_" gradientUnits="userSpaceOnUse" x1="1719.9784" y1="1918.1472" x2="1300.2582" y2="2687.0742">
				<stop  offset="0" style="stop-color:#E1473D"/>
				<stop  offset="1" style="stop-color:#E9605A"/>
			</linearGradient>
			<path style="fill:url(#SVGID_00000132798357408170830470000002414030435708527752_);" d="M1378,2465.01
				c-0.92-0.341-1.439-1.338-1.169-2.298c0.284-1.012,1.335-1.602,2.347-1.318c0.656,0.186,65.763,18.47,76.031,21.011
				c1.009,0.259,1.643,1.285,1.39,2.305c-0.252,1.021-1.285,1.643-2.305,1.392c-10.325-2.556-75.489-20.858-76.146-21.042
				C1378.098,2465.044,1378.048,2465.028,1378,2465.01z"/>
		</g>
	</g>
</g>
</svg>
